<!-- Generated by IcoMoon.io -->
<svg version="1.1" xmlns="http://www.w3.org/2000/svg" width="512" height="512" viewBox="0 0 512 512">
<title></title>
<g id="icomoon-ignore">
</g>
<path d="M465 154.3c-23.9 106.1-97.7 162.1-214 162.1h-38.7l-26.9 170.8h-32.4l-1.7 11c-1.1 7.3 4.5 13.8 11.8 13.8h82.8c9.8 0 18.1-7.1 19.7-16.8l0.8-4.2 15.6-98.9 1-5.4c1.5-9.7 9.9-16.8 19.7-16.8h12.3c80.2 0 143-32.6 161.4-126.8 6.9-35.8 4.3-66.2-11.4-88.8z"></path>
<path d="M415.5 38.6c-23.7-27-66.6-38.6-121.4-38.6h-159.1c-11.2 0-20.8 8.1-22.5 19.2l-66.3 420.2c-1.3 8.3 5.1 15.8 13.5 15.8h98.3l24.7-156.5-0.8 4.9c1.7-11.1 11.2-19.2 22.4-19.2h46.7c91.7 0 163.5-37.2 184.5-145 0.6-3.2 1.2-6.3 1.6-9.3 6.2-39.8 0-67-21.6-91.5z"></path>
</svg>
